<?xml version="1.0" standalone="no"?>
<!DOCTYPE svg PUBLIC "-//W3C//DTD SVG 20010904//EN"
 "http://www.w3.org/TR/2001/REC-SVG-20010904/DTD/svg10.dtd">
<svg version="1.0" xmlns="http://www.w3.org/2000/svg"
 width="1080.000000pt" height="1008.000000pt" viewBox="0 0 1080.000000 1008.000000"
 preserveAspectRatio="xMidYMid meet">

<g transform="translate(0.000000,1008.000000) scale(0.100000,-0.100000)"
fill="#000000" stroke="none">
<path d="M5484 9659 c-46 -13 -72 -48 -105 -145 -16 -49 -52 -133 -80 -187
-34 -68 -49 -110 -49 -137 0 -37 -2 -40 -37 -49 -60 -17 -104 -1 -238 86 -80
52 -117 89 -149 150 -9 18 -25 37 -35 43 -29 15 -83 12 -109 -6 -20 -14 -24
-14 -44 0 -31 22 -84 20 -124 -5 -40 -24 -142 -147 -171 -204 -11 -22 -32 -64
-47 -93 -15 -30 -31 -75 -37 -100 -6 -26 -18 -81 -27 -122 -20 -89 -22 -396
-4 -500 32 -183 128 -375 266 -535 60 -69 185 -171 256 -207 l55 -28 -1118 0
-1119 0 -30 -30 c-27 -28 -30 -35 -24 -72 8 -52 112 -221 206 -338 l69 -85 0
-1675 1 -1676 -125 -126 -125 -126 0 -89 0 -88 1048 -1047 1047 -1048 193 0
192 0 0 418 c0 364 2 420 16 440 14 20 16 288 17 2770 2 2433 4 2747 17 2749
8 2 22 -1 30 -7 13 -8 16 -397 20 -3368 l5 -3360 40 -56 c22 -31 49 -71 59
-89 11 -18 41 -64 68 -104 26 -40 48 -75 48 -78 0 -4 18 -37 40 -74 22 -37 40
-77 40 -90 0 -38 43 -71 92 -71 24 0 53 6 64 14 17 12 22 12 39 0 25 -19 95
-18 122 1 20 14 177 257 191 294 3 9 13 27 23 41 9 14 36 61 59 105 23 44 51
90 63 103 l22 24 2 3345 c1 2926 3 3348 16 3361 10 9 20 11 30 5 14 -7 16
-282 19 -2738 3 -2571 4 -2732 21 -2769 15 -35 17 -80 17 -446 0 -380 1 -408
18 -412 9 -2 92 -2 183 0 l166 4 1042 1042 1041 1041 0 88 0 89 -125 126 -125
126 0 844 0 844 -29 29 -29 29 -531 0 -531 0 0 700 c0 693 0 700 20 700 20 0
20 -7 20 -580 l0 -581 25 -24 24 -25 486 0 487 0 29 29 29 30 -4 628 c-2 345
-4 635 -5 643 -4 32 12 77 39 115 16 22 76 110 134 196 117 172 126 200 81
244 l-24 25 -1111 0 c-665 0 -1109 4 -1106 9 4 5 35 25 71 45 133 73 245 179
361 341 59 83 67 98 108 205 46 122 55 155 67 255 22 191 6 450 -35 555 -10
25 -21 59 -25 75 -11 42 -39 97 -83 162 -38 58 -126 156 -151 170 -30 17 -62
16 -97 -2 -27 -14 -33 -14 -60 0 -61 32 -107 12 -165 -70 -72 -101 -292 -233
-344 -206 -11 6 -42 11 -70 11 l-51 0 0 48 c0 35 -8 58 -29 90 -26 38 -48 89
-90 210 -22 62 -34 97 -42 119 -18 50 -104 72 -153 40 -15 -10 -27 -12 -33 -6
-17 17 -67 26 -99 18z m1976 -2644 c19 -22 3 -25 -185 -27 l-170 -3 -5 -780
-5 -780 -4 780 c-2 429 -2 787 -1 795 1 8 6 17 10 20 5 3 85 6 178 7 139 2
172 0 182 -12z m-3480 -114 c13 -26 14 -1269 0 -1305 -8 -21 -16 -26 -44 -26
-38 0 -49 10 -52 49 -9 123 6 1262 17 1283 13 25 65 24 79 -1z m3595 -1111 c4
-6 -10 -10 -35 -10 -25 0 -39 4 -35 10 3 6 19 10 35 10 16 0 32 -4 35 -10z
m635 6 c0 -3 -4 -8 -10 -11 -5 -3 -10 -1 -10 4 0 6 5 11 10 11 6 0 10 -2 10
-4z m10 -436 c0 -5 -2 -10 -4 -10 -3 0 -8 5 -11 10 -3 6 -1 10 4 10 6 0 11 -4
11 -10z m-1123 -2017 c-1 -274 -2 -50 -2 497 0 547 1 771 2 498 2 -274 2 -722
0 -995z m239 1413 c18 -14 19 -35 21 -778 3 -845 5 -816 -57 -810 -19 2 -36 5
-37 6 -1 1 -15 812 -14 871 2 172 8 648 9 673 2 24 8 35 25 42 30 12 31 12 53
-4z m-3365 -73 c12 -13 14 -142 14 -745 0 -635 -2 -730 -15 -738 -16 -10 -59
-3 -75 12 -13 12 -8 1444 6 1470 12 22 52 24 70 1z"/>
</g>
</svg>
